<?xml version="1.0" encoding="utf-8"?>
<!-- Generator: Adobe Illustrator 24.0.2, SVG Export Plug-In . SVG Version: 6.00 Build 0)  -->
<svg version="1.1" id="Layer_1" xmlns="http://www.w3.org/2000/svg" xmlns:xlink="http://www.w3.org/1999/xlink" x="0px" y="0px"
	 width="10.7px" height="19.7px" viewBox="0 0 10.7 29.7" style="enable-background:new 0 0 14.7 29.7;" xml:space="preserve">
<style type="text/css">
	.st0{fill:none;}
	.st1{fill-rule:evenodd;clip-rule:evenodd;fill:#00A4AA;}
	.st2{fill-rule:evenodd;clip-rule:evenodd;fill:#1A4869;}
	.st3{fill-rule:evenodd;clip-rule:evenodd;fill:#CA3433;}
</style>
<rect x="-242.4" y="-98.3" class="st0" width="19.5" height="19.3"/>
<g xmlns="http://www.w3.org/2000/svg" id="_1261840528">
	<g>
		
		
		<path class="st1" d="M0.7,9.5v13c0,0,0,0,0,0.1c0,3.6,2.9,6.4,6.5,6.4v-6.4V9.5H0.7z"/>
	</g>
	
	<path class="st3" d="M4,8L4,8c2.2,0,4-1.8,4-4l0,0c0-2.2-1.8-4-4-4l0,0C1.8,0,0,1.8,0,4l0,0C0,6.2,1.8,8,4,8z"/>
</g>
</svg>
